<?xml version="1.0" encoding="utf-8"?>
<!-- Generator: Adobe Illustrator 28.0.0, SVG Export Plug-In . SVG Version: 6.00 Build 0)  -->
<svg version="1.1" id="Layer_1" xmlns="http://www.w3.org/2000/svg" xmlns:xlink="http://www.w3.org/1999/xlink" x="0px" y="0px"
	 viewBox="0 0 512 512" style="enable-background:new 0 0 512 512;" xml:space="preserve">
<style type="text/css">
	.st0{fill:#D20A0A;}
</style>
<g>
	<path class="st0" d="M41.34,167.28h60.79c-12.08,43.41-24.08,86.85-36.15,130.27c-0.51,1.54-0.53,3.33,0.42,4.71
		c1.53,2.33,4.45,3.25,7.1,3.39c3.16,0.08,6.31,0.01,9.48,0.04c3.43-0.02,6.98,0.11,10.24-1.14c2.25-0.88,3.64-3.1,4.24-5.35
		c12.23-43.97,24.4-87.96,36.64-131.92h60.43c-12.85,46.2-25.65,92.41-38.49,138.61c-1.38,4.9-2.69,9.83-4.12,14.72
		c-1.85,5.95-4.91,11.73-9.77,15.76c-3.59,3.06-8.09,4.79-12.62,5.89c-6.41,1.6-13.03,2.03-19.6,2.46H31.64
		c-7.73-0.48-15.64-2.25-22.08-6.74c-4.23-2.87-7.62-7.09-9.01-12.05c-0.68-2.13-0.55-4.4-0.54-6.61c0.01-2.63,0.91-5.12,1.58-7.64
		c13.35-48.14,26.71-96.27,40.05-144.42L41.34,167.28z"/>
	<path class="st0" d="M223.29,167.28h130.63c-3.63,12.99-7.21,25.99-10.82,38.98c-43.55,0.01-87.09,0.01-130.64,0
		C216.06,193.27,219.64,180.26,223.29,167.28z"/>
	<path class="st0" d="M412.9,167.28H512c-1.43,5.9-3.22,11.71-4.79,17.57c-1.98,7.14-3.97,14.28-5.94,21.41
		c-21.44,0.01-42.88,0-64.33,0c-3.14,0.03-6.4,0-9.36,1.21c-2.4,1.02-3.66,3.53-4.26,5.94c-7.82,28.21-15.66,56.43-23.47,84.64
		c-0.57,1.75-0.08,3.76,1.22,5.05c1.92,1.96,4.78,2.58,7.44,2.58c23.35,0.01,46.71,0,70.06,0.01c-3.6,13.01-7.22,26.02-10.83,39.04
		h-99.25c-7.43-0.47-15.02-2.11-21.33-6.24c-4.14-2.65-7.63-6.5-9.29-11.17c-1.53-4.01-1.4-8.48-0.24-12.57
		c11.22-40.43,22.44-80.86,33.67-121.28c1.63-5.95,4.23-11.81,8.61-16.25c2.9-2.97,6.57-5.1,10.5-6.4
		C397.64,168.37,405.32,167.78,412.9,167.28z"/>
	<path class="st0" d="M204.95,233.17c43.55-0.01,87.11,0,130.66,0c-3.61,13.03-7.23,26.05-10.85,39.08
		c-23.4,0.01-46.81,0-70.21,0.01c-6.71,24.15-13.4,48.31-20.1,72.47h0.41H174C184.34,307.55,194.63,270.36,204.95,233.17z"/>
</g>
</svg>
